<mxfile host="app.diagrams.net" agent="Mozilla/5.0 (Windows NT 10.0; Win64; x64) AppleWebKit/537.36 (KHTML, like Gecko) Chrome/134.0.0.0 Safari/537.36 Edg/134.0.0.0" version="26.1.1">
  <diagram name="Page-1" id="8ce9d11a-91a2-4d17-14d8-a56ed91bf033">
    <mxGraphModel dx="1379" dy="749" grid="1" gridSize="10" guides="1" tooltips="1" connect="1" arrows="1" fold="1" page="1" pageScale="1" pageWidth="1100" pageHeight="850" background="none" math="0" shadow="0">
      <root>
        <mxCell id="0" />
        <mxCell id="1" parent="0" />
        <mxCell id="jzOGWuuaGEUKZe-l78xZ-30" style="edgeStyle=orthogonalEdgeStyle;rounded=1;html=1;labelBackgroundColor=none;startArrow=none;startFill=0;startSize=5;endArrow=classicThin;endFill=1;endSize=5;jettySize=auto;orthogonalLoop=1;strokeWidth=1;fontFamily=Verdana;fontSize=8;entryX=0.5;entryY=0;entryDx=0;entryDy=0;entryPerimeter=0;exitX=1;exitY=0.5;exitDx=0;exitDy=0;exitPerimeter=0;" edge="1" parent="1" source="jzOGWuuaGEUKZe-l78xZ-48" target="jzOGWuuaGEUKZe-l78xZ-39">
          <mxGeometry relative="1" as="geometry">
            <mxPoint x="355" y="170" as="sourcePoint" />
            <mxPoint x="455" y="220" as="targetPoint" />
            <Array as="points">
              <mxPoint x="610" y="110" />
            </Array>
          </mxGeometry>
        </mxCell>
        <mxCell id="jzOGWuuaGEUKZe-l78xZ-31" style="edgeStyle=orthogonalEdgeStyle;rounded=1;html=1;labelBackgroundColor=none;startArrow=none;startFill=0;startSize=5;endArrow=classicThin;endFill=1;endSize=5;jettySize=auto;orthogonalLoop=1;strokeWidth=1;fontFamily=Verdana;fontSize=8;entryX=0.5;entryY=0;entryDx=0;entryDy=0;entryPerimeter=0;exitX=0;exitY=0.5;exitDx=0;exitDy=0;exitPerimeter=0;" edge="1" parent="1" source="jzOGWuuaGEUKZe-l78xZ-48" target="jzOGWuuaGEUKZe-l78xZ-40">
          <mxGeometry relative="1" as="geometry">
            <mxPoint x="205" y="170" as="sourcePoint" />
            <mxPoint x="115" y="220" as="targetPoint" />
          </mxGeometry>
        </mxCell>
        <mxCell id="jzOGWuuaGEUKZe-l78xZ-32" style="edgeStyle=orthogonalEdgeStyle;rounded=1;html=1;labelBackgroundColor=none;startArrow=none;startFill=0;startSize=5;endArrow=classicThin;endFill=1;endSize=5;jettySize=auto;orthogonalLoop=1;strokeColor=#000000;strokeWidth=1;fontFamily=Verdana;fontSize=8;fontColor=#000000;exitX=0.5;exitY=1;exitDx=0;exitDy=0;exitPerimeter=0;entryX=1;entryY=0.5;entryDx=0;entryDy=0;entryPerimeter=0;" edge="1" parent="1" source="jzOGWuuaGEUKZe-l78xZ-47" target="jzOGWuuaGEUKZe-l78xZ-43">
          <mxGeometry relative="1" as="geometry">
            <mxPoint x="789.5" y="315" as="sourcePoint" />
            <mxPoint x="789.5" y="365" as="targetPoint" />
          </mxGeometry>
        </mxCell>
        <mxCell id="jzOGWuuaGEUKZe-l78xZ-33" style="edgeStyle=orthogonalEdgeStyle;rounded=1;html=1;labelBackgroundColor=none;startArrow=none;startFill=0;startSize=5;endArrow=classicThin;endFill=1;endSize=5;jettySize=auto;orthogonalLoop=1;strokeWidth=1;fontFamily=Verdana;fontSize=8;entryX=0.5;entryY=0;entryDx=0;entryDy=0;entryPerimeter=0;" edge="1" parent="1" target="jzOGWuuaGEUKZe-l78xZ-46">
          <mxGeometry relative="1" as="geometry">
            <mxPoint x="865" y="240" as="sourcePoint" />
            <mxPoint x="865" y="270" as="targetPoint" />
          </mxGeometry>
        </mxCell>
        <mxCell id="jzOGWuuaGEUKZe-l78xZ-34" style="edgeStyle=orthogonalEdgeStyle;rounded=1;html=1;labelBackgroundColor=none;startArrow=none;startFill=0;startSize=5;endArrow=classicThin;endFill=1;endSize=5;jettySize=auto;orthogonalLoop=1;strokeColor=#000000;strokeWidth=1;fontFamily=Verdana;fontSize=8;fontColor=#000000;" edge="1" parent="1">
          <mxGeometry relative="1" as="geometry">
            <mxPoint x="1039.5" y="270" as="sourcePoint" />
            <mxPoint x="1039.5" y="320" as="targetPoint" />
          </mxGeometry>
        </mxCell>
        <mxCell id="jzOGWuuaGEUKZe-l78xZ-35" style="edgeStyle=orthogonalEdgeStyle;rounded=1;html=1;labelBackgroundColor=none;startArrow=none;startFill=0;startSize=5;endArrow=classicThin;endFill=1;endSize=5;jettySize=auto;orthogonalLoop=1;strokeColor=#000000;strokeWidth=1;fontFamily=Verdana;fontSize=8;fontColor=#000000;entryX=0.5;entryY=0;entryDx=0;entryDy=0;entryPerimeter=0;" edge="1" parent="1" target="jzOGWuuaGEUKZe-l78xZ-46">
          <mxGeometry relative="1" as="geometry">
            <mxPoint x="965" y="239.5" as="sourcePoint" />
            <mxPoint x="865" y="239.5" as="targetPoint" />
          </mxGeometry>
        </mxCell>
        <mxCell id="jzOGWuuaGEUKZe-l78xZ-36" style="edgeStyle=orthogonalEdgeStyle;rounded=1;html=1;labelBackgroundColor=none;startArrow=none;startFill=0;startSize=5;endArrow=classicThin;endFill=1;endSize=5;jettySize=auto;orthogonalLoop=1;strokeWidth=1;fontFamily=Verdana;fontSize=8;exitX=1;exitY=0.5;exitDx=0;exitDy=0;exitPerimeter=0;entryX=0.5;entryY=0;entryDx=0;entryDy=0;entryPerimeter=0;" edge="1" parent="1" source="jzOGWuuaGEUKZe-l78xZ-48" target="jzOGWuuaGEUKZe-l78xZ-42">
          <mxGeometry relative="1" as="geometry">
            <Array as="points">
              <mxPoint x="430" y="110" />
            </Array>
            <mxPoint x="420" y="190" as="sourcePoint" />
            <mxPoint x="350" y="250" as="targetPoint" />
          </mxGeometry>
        </mxCell>
        <mxCell id="jzOGWuuaGEUKZe-l78xZ-37" style="edgeStyle=orthogonalEdgeStyle;rounded=1;html=1;labelBackgroundColor=none;startArrow=none;startFill=0;startSize=5;endArrow=classicThin;endFill=1;endSize=5;jettySize=auto;orthogonalLoop=1;strokeWidth=1;fontFamily=Verdana;fontSize=8;entryX=0.5;entryY=0;entryDx=0;entryDy=0;entryPerimeter=0;" edge="1" parent="1" target="jzOGWuuaGEUKZe-l78xZ-41">
          <mxGeometry relative="1" as="geometry">
            <mxPoint x="280" y="140" as="sourcePoint" />
            <mxPoint x="279.5" y="260" as="targetPoint" />
          </mxGeometry>
        </mxCell>
        <mxCell id="jzOGWuuaGEUKZe-l78xZ-38" value="Configurar Autenticación" style="strokeWidth=2;html=1;shape=mxgraph.flowchart.start_1;whiteSpace=wrap;" vertex="1" parent="1">
          <mxGeometry x="150" y="430" width="100" height="60" as="geometry" />
        </mxCell>
        <mxCell id="jzOGWuuaGEUKZe-l78xZ-39" value="Solicitar Horas Extras" style="strokeWidth=2;html=1;shape=mxgraph.flowchart.start_1;whiteSpace=wrap;" vertex="1" parent="1">
          <mxGeometry x="560" y="210" width="100" height="60" as="geometry" />
        </mxCell>
        <mxCell id="jzOGWuuaGEUKZe-l78xZ-40" value="Registrar Fichaje" style="strokeWidth=2;html=1;shape=mxgraph.flowchart.start_1;whiteSpace=wrap;" vertex="1" parent="1">
          <mxGeometry x="70" y="320" width="100" height="60" as="geometry" />
        </mxCell>
        <mxCell id="jzOGWuuaGEUKZe-l78xZ-41" value="Cambiar contraseña" style="strokeWidth=2;html=1;shape=mxgraph.flowchart.start_1;whiteSpace=wrap;" vertex="1" parent="1">
          <mxGeometry x="230" y="320" width="100" height="60" as="geometry" />
        </mxCell>
        <mxCell id="jzOGWuuaGEUKZe-l78xZ-42" value="Recibir Notificaciones" style="strokeWidth=2;html=1;shape=mxgraph.flowchart.start_1;whiteSpace=wrap;" vertex="1" parent="1">
          <mxGeometry x="380" y="320" width="100" height="60" as="geometry" />
        </mxCell>
        <mxCell id="jzOGWuuaGEUKZe-l78xZ-43" value="Validar Horas Extras" style="strokeWidth=2;html=1;shape=mxgraph.flowchart.start_1;whiteSpace=wrap;" vertex="1" parent="1">
          <mxGeometry x="620" y="320" width="100" height="60" as="geometry" />
        </mxCell>
        <mxCell id="jzOGWuuaGEUKZe-l78xZ-44" value="Asignar Roles" style="strokeWidth=2;html=1;shape=mxgraph.flowchart.start_1;whiteSpace=wrap;" vertex="1" parent="1">
          <mxGeometry x="990" y="320" width="100" height="60" as="geometry" />
        </mxCell>
        <mxCell id="jzOGWuuaGEUKZe-l78xZ-45" value="Administrador" style="strokeWidth=2;html=1;shape=mxgraph.flowchart.start_1;whiteSpace=wrap;" vertex="1" parent="1">
          <mxGeometry x="965" y="210" width="150" height="60" as="geometry" />
        </mxCell>
        <mxCell id="jzOGWuuaGEUKZe-l78xZ-46" value="Generar Reportes" style="strokeWidth=2;html=1;shape=mxgraph.flowchart.start_1;whiteSpace=wrap;" vertex="1" parent="1">
          <mxGeometry x="865" y="320" width="100" height="60" as="geometry" />
        </mxCell>
        <mxCell id="jzOGWuuaGEUKZe-l78xZ-47" value="Dirección" style="strokeWidth=2;html=1;shape=mxgraph.flowchart.start_1;whiteSpace=wrap;" vertex="1" parent="1">
          <mxGeometry x="715" y="210" width="150" height="60" as="geometry" />
        </mxCell>
        <mxCell id="jzOGWuuaGEUKZe-l78xZ-48" value="Empleado" style="strokeWidth=2;html=1;shape=mxgraph.flowchart.start_1;whiteSpace=wrap;" vertex="1" parent="1">
          <mxGeometry x="205" y="80" width="150" height="60" as="geometry" />
        </mxCell>
        <mxCell id="jzOGWuuaGEUKZe-l78xZ-49" value="" style="endArrow=none;dashed=1;html=1;dashPattern=1 3;strokeWidth=2;rounded=0;entryX=0.5;entryY=1;entryDx=0;entryDy=0;entryPerimeter=0;exitX=0;exitY=0.5;exitDx=0;exitDy=0;exitPerimeter=0;curved=0;startArrow=block;startFill=1;" edge="1" parent="1" source="jzOGWuuaGEUKZe-l78xZ-43" target="jzOGWuuaGEUKZe-l78xZ-39">
          <mxGeometry width="50" height="50" relative="1" as="geometry">
            <mxPoint x="550" y="420" as="sourcePoint" />
            <mxPoint x="600" y="370" as="targetPoint" />
          </mxGeometry>
        </mxCell>
        <mxCell id="jzOGWuuaGEUKZe-l78xZ-50" value="Include" style="edgeLabel;html=1;align=center;verticalAlign=middle;resizable=0;points=[];" vertex="1" connectable="0" parent="jzOGWuuaGEUKZe-l78xZ-49">
          <mxGeometry x="0.0263" relative="1" as="geometry">
            <mxPoint as="offset" />
          </mxGeometry>
        </mxCell>
        <mxCell id="jzOGWuuaGEUKZe-l78xZ-51" style="edgeStyle=orthogonalEdgeStyle;rounded=1;html=1;labelBackgroundColor=none;startArrow=none;startFill=0;startSize=5;endArrow=classicThin;endFill=1;endSize=5;jettySize=auto;orthogonalLoop=1;strokeWidth=1;fontFamily=Verdana;fontSize=8;entryX=0.5;entryY=0;entryDx=0;entryDy=0;entryPerimeter=0;exitX=0.5;exitY=1;exitDx=0;exitDy=0;exitPerimeter=0;" edge="1" parent="1" source="jzOGWuuaGEUKZe-l78xZ-48" target="jzOGWuuaGEUKZe-l78xZ-38">
          <mxGeometry relative="1" as="geometry">
            <mxPoint x="255" y="270" as="sourcePoint" />
            <mxPoint x="170" y="420" as="targetPoint" />
            <Array as="points">
              <mxPoint x="280" y="260" />
              <mxPoint x="200" y="260" />
            </Array>
          </mxGeometry>
        </mxCell>
        <mxCell id="jzOGWuuaGEUKZe-l78xZ-52" value="" style="endArrow=none;dashed=1;html=1;dashPattern=1 3;strokeWidth=2;rounded=0;entryX=0.5;entryY=1;entryDx=0;entryDy=0;entryPerimeter=0;exitX=1;exitY=0.5;exitDx=0;exitDy=0;exitPerimeter=0;curved=0;startArrow=block;startFill=1;" edge="1" parent="1" source="jzOGWuuaGEUKZe-l78xZ-38">
          <mxGeometry width="50" height="50" relative="1" as="geometry">
            <mxPoint x="430" y="460" as="sourcePoint" />
            <mxPoint x="280" y="380" as="targetPoint" />
          </mxGeometry>
        </mxCell>
        <mxCell id="jzOGWuuaGEUKZe-l78xZ-53" value="Extend" style="edgeLabel;html=1;align=center;verticalAlign=middle;resizable=0;points=[];" vertex="1" connectable="0" parent="jzOGWuuaGEUKZe-l78xZ-52">
          <mxGeometry x="0.0263" relative="1" as="geometry">
            <mxPoint as="offset" />
          </mxGeometry>
        </mxCell>
        <mxCell id="jzOGWuuaGEUKZe-l78xZ-54" value="Consultar Fichajes" style="strokeWidth=2;html=1;shape=mxgraph.flowchart.start_1;whiteSpace=wrap;" vertex="1" parent="1">
          <mxGeometry x="560" y="430" width="100" height="60" as="geometry" />
        </mxCell>
        <mxCell id="jzOGWuuaGEUKZe-l78xZ-55" style="edgeStyle=orthogonalEdgeStyle;rounded=1;html=1;labelBackgroundColor=none;startArrow=none;startFill=0;startSize=5;endArrow=classicThin;endFill=1;endSize=5;jettySize=auto;orthogonalLoop=1;strokeWidth=1;fontFamily=Verdana;fontSize=8;exitX=1;exitY=0.5;exitDx=0;exitDy=0;exitPerimeter=0;entryX=0;entryY=0.5;entryDx=0;entryDy=0;entryPerimeter=0;" edge="1" parent="1" source="jzOGWuuaGEUKZe-l78xZ-48" target="jzOGWuuaGEUKZe-l78xZ-54">
          <mxGeometry relative="1" as="geometry">
            <Array as="points">
              <mxPoint x="520" y="110" />
              <mxPoint x="520" y="460" />
            </Array>
            <mxPoint x="365" y="120" as="sourcePoint" />
            <mxPoint x="440" y="330" as="targetPoint" />
          </mxGeometry>
        </mxCell>
        <mxCell id="jzOGWuuaGEUKZe-l78xZ-56" style="edgeStyle=orthogonalEdgeStyle;rounded=1;html=1;labelBackgroundColor=none;startArrow=none;startFill=0;startSize=5;endArrow=classicThin;endFill=1;endSize=5;jettySize=auto;orthogonalLoop=1;strokeColor=#000000;strokeWidth=1;fontFamily=Verdana;fontSize=8;fontColor=#000000;exitX=0.5;exitY=1;exitDx=0;exitDy=0;exitPerimeter=0;entryX=1;entryY=0.5;entryDx=0;entryDy=0;entryPerimeter=0;" edge="1" parent="1" source="jzOGWuuaGEUKZe-l78xZ-47" target="jzOGWuuaGEUKZe-l78xZ-54">
          <mxGeometry relative="1" as="geometry">
            <mxPoint x="840" y="400" as="sourcePoint" />
            <mxPoint x="770" y="480" as="targetPoint" />
          </mxGeometry>
        </mxCell>
        <mxCell id="jzOGWuuaGEUKZe-l78xZ-57" value="CRUD Usuarios&lt;div&gt;Empresas&lt;/div&gt;" style="strokeWidth=2;html=1;shape=mxgraph.flowchart.start_1;whiteSpace=wrap;" vertex="1" parent="1">
          <mxGeometry x="990" y="90" width="100" height="60" as="geometry" />
        </mxCell>
        <mxCell id="jzOGWuuaGEUKZe-l78xZ-58" style="edgeStyle=orthogonalEdgeStyle;rounded=1;html=1;labelBackgroundColor=none;startArrow=none;startFill=0;startSize=5;endArrow=classicThin;endFill=1;endSize=5;jettySize=auto;orthogonalLoop=1;strokeColor=#000000;strokeWidth=1;fontFamily=Verdana;fontSize=8;fontColor=#000000;exitX=0.5;exitY=0;exitDx=0;exitDy=0;exitPerimeter=0;entryX=0.5;entryY=1;entryDx=0;entryDy=0;entryPerimeter=0;" edge="1" parent="1" source="jzOGWuuaGEUKZe-l78xZ-45" target="jzOGWuuaGEUKZe-l78xZ-57">
          <mxGeometry relative="1" as="geometry">
            <mxPoint x="1049.5" y="280" as="sourcePoint" />
            <mxPoint x="1049.5" y="330" as="targetPoint" />
          </mxGeometry>
        </mxCell>
      </root>
    </mxGraphModel>
  </diagram>
</mxfile>
